<svg width="16" height="16" viewBox="0 0 16 16" fill="none" xmlns="http://www.w3.org/2000/svg">
<path d="M5.87329 1.33337L3.45996 3.75337" stroke="white" stroke-width="1.5" stroke-miterlimit="10" stroke-linecap="round" stroke-linejoin="round"/>
<path d="M10.127 1.33337L12.5403 3.75337" stroke="white" stroke-width="1.5" stroke-miterlimit="10" stroke-linecap="round" stroke-linejoin="round"/>
<path d="M1.33301 5.23336C1.33301 4.00002 1.99301 3.90002 2.81301 3.90002H13.1863C14.0063 3.90002 14.6663 4.00002 14.6663 5.23336C14.6663 6.66669 14.0063 6.56669 13.1863 6.56669H2.81301C1.99301 6.56669 1.33301 6.66669 1.33301 5.23336Z" stroke="white" stroke-width="1.5"/>
<path d="M6.50684 9.33337V11.7" stroke="white" stroke-width="1.5" stroke-linecap="round"/>
<path d="M9.57324 9.33337V11.7" stroke="white" stroke-width="1.5" stroke-linecap="round"/>
<path d="M2.33301 6.66663L3.27301 12.4266C3.48634 13.72 3.99967 14.6666 5.90634 14.6666H9.92634C11.9997 14.6666 12.3063 13.76 12.5463 12.5066L13.6663 6.66663" stroke="white" stroke-width="1.5" stroke-linecap="round"/>
</svg>
